<svg width="128" height="128" viewBox="0 0 128 128" fill="none" xmlns="http://www.w3.org/2000/svg">
<g clip-path="url(#clip0_12_2)">
<g clip-path="url(#clip1_12_2)">
<circle cx="63.6667" cy="42.6667" r="42.6667" fill="#EE1C25"/>
<path d="M69.7731 17.8056C69.1917 17.9918 68.6611 18.3095 68.2224 18.734C67.7838 19.1586 67.4489 19.6785 67.2439 20.2535C67.0389 20.8285 66.9692 21.443 67.0403 22.0493C67.1114 22.6556 67.3213 23.2374 67.6538 23.7494C68.165 24.5367 68.4975 25.4266 68.6279 26.3563C68.7582 27.286 68.6832 28.233 68.4081 29.1306C68.133 30.0282 67.6645 30.8546 67.0356 31.5516C66.4067 32.2487 65.6327 32.7994 64.7681 33.1651C63.9164 33.5253 63.1693 34.0945 62.596 34.8201C62.0227 35.5458 61.6417 36.4043 61.4884 37.3162C61.335 38.2282 61.4142 39.1641 61.7185 40.0373C62.0229 40.9105 62.5427 41.6928 63.2297 42.3118C61.1634 40.8416 59.7532 38.6223 59.2997 36.1272C58.8462 33.6321 59.3854 31.0585 60.8023 28.9552C60.7474 28.9081 60.6947 28.8584 60.6446 28.8062C59.1947 30.9419 58.6327 33.5579 59.0774 36.1006C59.5222 38.6434 60.9387 40.9133 63.0274 42.4301C60.0981 41.2569 57.703 39.0467 56.2987 36.2209C54.8943 33.3951 54.5789 30.1513 55.4126 27.1079C56.2463 24.0645 58.1708 21.4343 60.8193 19.7188C63.4677 18.0032 66.6548 17.3222 69.7731 17.8056Z" fill="white"/>
<path d="M63.9482 25.7564L60.0278 27.4661L64.2044 28.3872L61.3669 25.1871L61.7815 29.4439" fill="#EE1C25"/>
<path d="M89.1979 40.7918C88.8412 40.2964 88.3751 39.8899 87.8358 39.6039C87.2965 39.3179 86.6985 39.1601 86.0883 39.1428C85.478 39.1255 84.8721 39.2491 84.3174 39.5041C83.7627 39.7591 83.2743 40.1385 82.8902 40.6129C82.2993 41.3424 81.5558 41.9337 80.7118 42.3449C79.8679 42.7561 78.9441 42.9774 78.0054 42.9932C77.0667 43.0089 76.136 42.8187 75.2787 42.436C74.4215 42.0533 73.6585 41.4874 73.0436 40.778C72.4378 40.0793 71.6655 39.5447 70.7983 39.2237C69.931 38.9027 68.9968 38.8057 68.0821 38.9416C67.1674 39.0776 66.3018 39.4421 65.5653 40.0014C64.8289 40.5607 64.2455 41.2968 63.8691 42.1415C64.6289 39.722 66.3037 37.695 68.5366 36.4926C70.7695 35.2903 73.3837 35.0079 75.8219 35.7055C75.8497 35.6386 75.8807 35.5732 75.9149 35.5094C73.4357 34.7905 70.774 35.0644 68.4932 36.2731C66.2123 37.4818 64.4912 39.5305 63.6941 41.9856C63.9047 38.8372 65.2666 35.8763 67.5201 33.6674C69.7737 31.4586 72.7612 30.1563 75.9133 30.0087C79.0653 29.8612 82.1615 30.8787 84.6115 32.8674C87.0615 34.856 88.6941 37.6767 89.1979 40.7918Z" fill="white"/>
<path d="M79.8363 37.7088L76.9988 34.5087L77.4134 38.7655L79.5801 35.078L75.6597 36.7877" fill="#EE1C25"/>
<path d="M44.1135 59.1904C44.6932 59.3815 45.3092 59.4364 45.9137 59.3508C46.5181 59.2651 47.0946 59.0413 47.5985 58.6966C48.1023 58.3519 48.5199 57.8957 48.8187 57.3634C49.1176 56.8312 49.2897 56.2371 49.3217 55.6275C49.3709 54.69 49.6249 53.7746 50.0659 52.9459C50.507 52.1171 51.1243 51.3951 51.8744 50.8306C52.6246 50.2661 53.4893 49.8729 54.4078 49.6787C55.3263 49.4844 56.2762 49.4938 57.1907 49.7062C58.0914 49.9154 59.0304 49.894 59.9208 49.6439C60.8111 49.3939 61.6239 48.9233 62.284 48.2756C62.9441 47.628 63.4302 46.8243 63.6972 45.9389C63.9642 45.0536 64.0035 44.1151 63.8115 43.2105C64.6191 45.6145 64.4555 48.2389 63.3558 50.524C62.256 52.8092 60.3071 54.5743 57.9246 55.4431C57.9413 55.5135 57.9547 55.5846 57.9646 55.6563C60.3929 54.7807 62.3852 52.9947 63.52 50.6761C64.6548 48.3576 64.843 45.6886 64.0447 43.2337C65.725 45.9047 66.3635 49.1006 65.8387 52.2122C65.3139 55.3238 63.6624 58.1334 61.1991 60.1055C58.7357 62.0776 55.6328 63.0743 52.4818 62.9055C49.3308 62.7368 46.3521 61.4143 44.1135 59.1904Z" fill="white"/>
<path d="M53.4993 56.1819L57.6759 57.103L54.8384 53.9029L55.253 58.1597L57.4196 54.4722" fill="#EE1C25"/>
<path d="M73.3394 66.3689C73.7003 65.8766 73.9429 65.3077 74.0482 64.7064C74.1535 64.1051 74.1188 63.4876 73.9467 62.9019C73.7746 62.3163 73.4697 61.7781 73.0559 61.3294C72.642 60.8807 72.1302 60.5334 71.5603 60.3147C70.6839 59.9782 69.8918 59.4537 69.2399 58.7782C68.588 58.1026 68.0921 57.2924 67.787 56.4045C67.482 55.5167 67.3752 54.5727 67.4743 53.6392C67.5734 52.7056 67.8759 51.8051 68.3605 51.001C68.8378 50.209 69.1076 49.3093 69.1449 48.3853C69.1822 47.4613 68.9858 46.5428 68.5738 45.7149C68.1619 44.887 67.5477 44.1763 66.7882 43.6488C66.0287 43.1213 65.1483 42.7939 64.2287 42.6969C66.7646 42.6718 69.2099 43.6383 71.0434 45.3904C72.8768 47.1424 73.9533 49.5414 74.0433 52.0758C74.1155 52.0817 74.1873 52.0909 74.2585 52.1037C74.1761 49.5237 73.0932 47.0769 71.2388 45.2812C69.3844 43.4855 66.9041 42.4817 64.3228 42.4823C67.3823 41.7097 70.6191 42.09 73.4162 43.5506C76.2133 45.0113 78.3751 47.4502 79.4895 50.4024C80.6039 53.3546 80.5929 56.6136 79.4586 59.5583C78.3244 62.5029 76.1462 64.9272 73.3394 66.3689Z" fill="white"/>
<path d="M73.3785 56.5128L75.5452 52.8253L71.6248 54.5351L75.8014 55.4562L72.9639 52.2561" fill="#EE1C25"/>
<path d="M41.9094 29.1766C41.9068 29.787 42.0449 30.3899 42.3131 30.9382C42.5814 31.4866 42.9724 31.9658 43.4559 32.3384C43.9394 32.7111 44.5023 32.9673 45.1009 33.087C45.6995 33.2068 46.3177 33.1869 46.9073 33.0289C47.8141 32.786 48.7632 32.7447 49.6877 32.9081C50.6122 33.0714 51.4896 33.4354 52.2583 33.9744C53.0269 34.5134 53.6681 35.2143 54.1367 36.0278C54.6053 36.8413 54.8899 37.7476 54.9705 38.683C55.0498 39.6043 55.3604 40.4907 55.8733 41.2602C56.3863 42.0297 57.085 42.6573 57.9049 43.085C58.7249 43.5126 59.6394 43.7265 60.564 43.7069C61.4885 43.6872 62.3932 43.4347 63.1942 42.9725C61.1574 44.4834 58.6109 45.1388 56.0978 44.7991C53.5846 44.4593 51.3036 43.1512 49.7412 41.1537C49.6794 41.1914 49.6158 41.2261 49.5507 41.2577C51.1338 43.2965 53.4481 44.6395 56.0038 45.0022C58.5596 45.365 61.1561 44.7192 63.2442 43.2015C61.2231 45.6249 58.381 47.2198 55.2595 47.6822C52.138 48.1446 48.9556 47.4421 46.3188 45.7088C43.682 43.9754 41.7752 41.3323 40.962 38.2834C40.1488 35.2344 40.486 31.9929 41.9094 29.1766Z" fill="white"/>
<path d="M47.671 37.1734L48.0856 41.4301L50.2523 37.7426L46.3319 39.4524L50.5085 40.3735" fill="#EE1C25"/>
</g>
<path d="M64 43L128 128H0L64 43Z" fill="#50940A"/>
</g>
<defs>
<clipPath id="clip0_12_2">
<rect width="128" height="128" fill="white"/>
</clipPath>
<clipPath id="clip1_12_2">
<rect width="85.3333" height="85.3333" fill="white" transform="translate(21)"/>
</clipPath>
</defs>
</svg>
